*
%FSLAX24Y24*%
%MOIN*%
%ADD10C,0.001000*%
%IPPOS*%
%LNbd9b300muv-e2evk-101_brd_rev00-1-2.drl*%
%LPD*%
G54D10*
X007100Y010500D03*
X016500Y004650D03*
X001500Y005500D03*
Y006450D03*
X016500Y005450D03*
Y006450D03*
X017500Y007450D03*
X016500D03*
X-001250Y013450D03*
Y014450D03*
X-000500Y015450D03*
X-001250D03*
X000500D03*
X016500D03*
X017500D03*
X006650Y011550D03*
X007050D03*
Y011150D03*
X006650D03*
X006450Y009100D03*
X014500Y015450D03*
X013500D03*
X015500D03*
X006100Y010800D03*
X005700Y010650D03*
X005200D03*
X005700Y010150D03*
X005200Y009650D03*
X005700D03*
X005200Y009150D03*
X005700D03*
X005200Y008650D03*
X005700D03*
X005200Y008150D03*
X005700D03*
X004700Y010150D03*
Y009650D03*
Y009150D03*
Y008650D03*
Y008150D03*
Y010650D03*
X003700Y008650D03*
Y009150D03*
Y009650D03*
X004200Y008650D03*
Y009150D03*
Y009650D03*
Y008150D03*
X003700D03*
X002700Y008650D03*
Y009150D03*
Y009650D03*
X003200Y008650D03*
Y009150D03*
Y009650D03*
X004200Y010150D03*
X003700D03*
X003200D03*
Y010650D03*
Y011100D03*
X001550Y009650D03*
Y009150D03*
Y008650D03*
X002200Y009650D03*
Y009150D03*
Y008650D03*
X001550Y010150D03*
Y010650D03*
Y011100D03*
X004700Y007200D03*
Y007650D03*
X005200Y007200D03*
Y007650D03*
Y006600D03*
X004700D03*
X003700D03*
X004200D03*
Y007650D03*
Y007200D03*
X003700Y007650D03*
Y007200D03*
X005700Y007650D03*
Y007200D03*
Y006600D03*
X006250Y008700D03*
X011750Y010300D03*
X012800Y010000D03*
X013350D03*
X013850Y010800D03*
Y010300D03*
X012250D03*
Y010800D03*
X015000Y010000D03*
X014450D03*
X015500Y010300D03*
Y010800D03*
X015950Y010000D03*
X016450D03*
X016750Y010300D03*
Y010800D03*
X017250Y010250D03*
X017750Y010800D03*
X014500Y004650D03*
X013500D03*
X015500D03*
X013500Y005450D03*
X014500D03*
X015500D03*
X012500Y004650D03*
X011500D03*
X010500D03*
X012500Y007450D03*
Y006450D03*
Y005450D03*
X011500Y007450D03*
Y006450D03*
Y005450D03*
X009500Y004650D03*
X008500D03*
X007500Y005400D03*
X005150D03*
X004150D03*
X012500Y009450D03*
X014500D03*
X013500D03*
X016500D03*
X017500Y008550D03*
X015500Y009450D03*
X019500D03*
X018500Y008550D03*
X019500D03*
X011500D03*
X012500D03*
X017500Y009450D03*
X016500Y008550D03*
X009500Y009450D03*
X010500D03*
X009500Y008550D03*
X010500D03*
X009500Y010450D03*
X010500D03*
X011250Y010300D03*
Y010800D03*
X009250Y013500D03*
X008750D03*
Y014000D03*
X009250D03*
X009900D03*
X010500Y013500D03*
Y014000D03*
X009000Y009450D03*
Y008550D03*
X019500Y010450D03*
Y011450D03*
Y012450D03*
Y013450D03*
Y014450D03*
X018750Y010800D03*
X-000500Y007450D03*
X000500D03*
X-000500Y008450D03*
X-001250D03*
X000500D03*
X-000500Y009050D03*
X-001250Y009450D03*
X000500Y009050D03*
X-000500Y010450D03*
X-001250D03*
X000500D03*
X-000500Y011450D03*
X-001250D03*
X000500D03*
X-000500Y012450D03*
X-001250D03*
X001500Y004650D03*
X002500D03*
X003500D03*
X004500D03*
X005500D03*
X006500D03*
X007500D03*
X002250Y005500D03*
X002000Y006100D03*
X002200Y008150D03*
X001550D03*
X001700Y007600D03*
X003700Y006150D03*
X004200D03*
X005200D03*
X004700D03*
X005700D03*
X008200Y007150D03*
Y007650D03*
X008700Y007150D03*
Y006650D03*
X008200D03*
Y006150D03*
X008700D03*
X007700Y006650D03*
Y007650D03*
Y007150D03*
Y006150D03*
X014500Y016450D03*
X013500D03*
X016500D03*
X015500D03*
X014500Y017450D03*
X013500D03*
X016500D03*
X015500D03*
X014500Y018450D03*
X013500D03*
X016500D03*
X015500D03*
X010500Y017450D03*
X012500D03*
X011500D03*
X010500Y018450D03*
X012500D03*
X011500D03*
X008500Y017450D03*
X009500D03*
X008500Y018450D03*
X009500D03*
X012500Y015450D03*
X011500D03*
X007600Y010500D03*
X006650Y012250D03*
X007800Y009100D03*
X006100Y012050D03*
X005350Y012150D03*
X002550Y012850D03*
X004050Y012600D03*
X008000Y013000D03*
X002000Y014900D03*
X004000D03*
X013000Y015000D03*
X015000D03*
X009900Y013500D03*
X009000Y010000D03*
X005200Y010150D03*
X011500Y009450D03*
X008000Y015850D03*
X011750Y012000D03*
X013000Y012750D03*
X014750D03*
X003050Y005750D03*
Y006750D03*
Y007750D03*
X006550Y005750D03*
Y006750D03*
Y007750D03*
X010050Y005750D03*
Y006750D03*
Y007750D03*
X005000Y014250D03*
X000000Y013750D03*
Y009750D03*
X018550Y013750D03*
Y009750D03*
X018150Y017300D03*
X000000Y006000D03*
X018150D03*
X000000Y017300D03*
M02*
